<?xml version="1.0" standalone="no"?>
<!DOCTYPE svg PUBLIC "-//W3C//DTD SVG 20010904//EN"
 "http://www.w3.org/TR/2001/REC-SVG-20010904/DTD/svg10.dtd">
<svg version="1.0" xmlns="http://www.w3.org/2000/svg"
 width="512.000000pt" height="512.000000pt" viewBox="0 0 512.000000 512.000000"
 preserveAspectRatio="xMidYMid meet">

<g transform="translate(0.000000,512.000000) scale(0.100000,-0.100000)"
fill="#000000" stroke="none">
<path d="M509 5105 c-14 -8 -31 -27 -37 -42 -6 -15 -45 -221 -88 -457 l-76
-428 19 -27 c14 -17 31 -27 54 -29 65 -6 71 9 130 338 29 162 55 298 58 302 3
4 46 -130 95 -298 79 -270 93 -308 119 -330 39 -33 81 -31 116 4 22 22 41 77
111 322 46 162 86 298 90 303 3 4 30 -118 59 -270 64 -338 67 -350 92 -363 33
-18 80 -8 102 21 l19 26 -81 429 c-45 236 -87 442 -93 457 -21 55 -98 73 -143
35 -21 -19 -40 -74 -116 -343 -50 -176 -94 -323 -98 -328 -4 -4 -50 138 -102
315 -76 263 -99 328 -121 351 -30 30 -67 35 -109 12z"/>
<path d="M3064 5050 c-34 -11 -96 -43 -138 -70 -84 -55 -239 -199 -317 -296
l-50 -61 -207 5 c-166 3 -225 1 -296 -12 -106 -20 -198 -61 -244 -107 -99 -99
-144 -318 -123 -601 l11 -143 -48 -40 c-170 -142 -305 -297 -361 -415 -31 -65
-36 -85 -36 -150 0 -63 5 -85 31 -140 58 -122 175 -258 357 -415 l57 -50 -11
-143 c-16 -209 8 -409 62 -514 31 -61 86 -115 144 -143 81 -38 122 -31 144 23
19 46 1 77 -66 110 -109 53 -139 160 -129 467 3 105 8 205 12 224 6 31 3 37
-56 90 -290 258 -393 388 -393 491 0 91 108 244 277 389 172 148 179 156 172
193 -4 18 -9 123 -12 233 -10 354 29 446 210 486 69 16 342 19 474 6 l83 -8
32 33 c18 19 73 81 123 139 150 174 297 279 389 279 108 0 283 -138 468 -367
32 -40 67 -75 77 -78 11 -3 63 -1 117 5 54 6 167 10 250 9 136 -2 155 0 173
16 26 23 26 75 1 106 -19 24 -19 24 -254 24 l-235 0 -32 40 c-56 72 -234 246
-296 291 -141 101 -251 130 -360 94z"/>
<path d="M4447 4459 c-34 -20 -37 -52 -12 -125 37 -105 48 -256 35 -446 -7
-88 -9 -169 -6 -182 3 -12 51 -60 106 -105 170 -141 304 -299 332 -393 33
-110 -96 -294 -354 -507 -101 -83 -95 -60 -77 -282 18 -222 -13 -432 -72 -496
-31 -32 -113 -60 -211 -73 -107 -13 -192 -13 -357 2 l-134 12 -31 -36 c-17
-19 -72 -82 -122 -139 -101 -117 -214 -213 -298 -254 -76 -37 -130 -32 -217
20 -64 39 -250 217 -359 344 l-55 64 -158 -13 c-127 -11 -164 -17 -183 -33
-33 -25 -32 -70 2 -104 l26 -26 127 7 127 7 67 -79 c125 -149 262 -266 377
-323 82 -41 181 -50 259 -24 111 37 282 174 428 345 l65 75 241 0 c218 1 250
3 321 23 175 49 249 128 291 312 21 97 29 297 17 425 l-10 100 46 39 c26 22
97 89 158 150 324 326 324 509 -3 838 -53 54 -120 117 -150 140 -52 42 -52 43
-45 83 14 80 7 405 -11 482 -19 84 -41 140 -64 165 -18 20 -68 23 -96 7z"/>
<path d="M2957 4395 c-391 -64 -735 -318 -918 -679 -94 -185 -135 -378 -126
-605 13 -334 139 -617 380 -848 359 -345 881 -445 1337 -256 469 194 773 647
772 1153 -1 265 -64 476 -208 693 -181 272 -465 464 -789 532 -109 23 -336 28
-448 10z m328 -146 c490 -60 885 -443 955 -928 18 -123 8 -313 -23 -434 -108
-410 -442 -723 -860 -802 -103 -20 -302 -19 -407 1 -387 73 -717 364 -835 737
-125 394 -28 807 260 1102 242 248 571 365 910 324z"/>
<path d="M3873 3435 c-17 -7 -33 -20 -37 -30 -10 -27 -7 -175 5 -196 25 -48
105 -44 128 7 6 14 11 58 11 98 0 106 -39 150 -107 121z"/>
<path d="M2351 3414 c-17 -22 -21 -41 -21 -106 0 -75 2 -81 29 -109 35 -34 59
-36 95 -8 25 20 26 25 26 118 0 112 -10 131 -73 131 -27 0 -41 -7 -56 -26z"/>
<path d="M3051 3380 c-136 -19 -205 -98 -204 -233 2 -133 64 -241 174 -302 47
-26 64 -30 134 -30 67 0 88 5 131 27 63 33 119 94 152 167 37 80 38 196 2 261
-28 49 -74 85 -129 99 -57 15 -190 20 -260 11z"/>
<path d="M410 3837 c-88 -30 -145 -65 -207 -127 -265 -268 -143 -730 220 -835
78 -22 210 -22 279 0 193 64 326 214 359 408 40 238 -115 485 -349 557 -90 28
-216 27 -302 -3z m306 -160 c103 -52 161 -126 190 -237 50 -194 -86 -397 -288
-429 -115 -19 -230 21 -311 108 -74 79 -92 127 -92 241 0 84 3 102 28 152 35
71 119 149 190 177 77 31 212 25 283 -12z"/>
<path d="M440 2600 c-19 -19 -20 -33 -20 -483 0 -443 1 -465 19 -481 27 -25
78 -24 104 3 20 20 22 34 27 196 l5 174 164 -187 c90 -103 175 -192 189 -198
31 -14 78 -1 92 26 24 44 12 66 -124 221 l-135 154 59 21 c76 27 124 64 161
123 39 60 52 114 46 182 -9 106 -75 196 -177 243 -52 24 -64 26 -222 26 -155
0 -170 -2 -188 -20z m356 -146 c52 -25 79 -69 79 -129 0 -58 -21 -93 -76 -124
-30 -17 -54 -21 -133 -21 l-96 0 0 145 0 145 96 0 c68 0 106 -5 130 -16z"/>
<path d="M4666 1589 l-26 -20 0 -515 c0 -501 1 -515 20 -534 25 -25 71 -26
101 -1 l24 19 3 498 c2 345 -1 507 -8 525 -11 25 -46 49 -74 49 -7 0 -25 -9
-40 -21z"/>
<path d="M764 1369 c-18 -20 -19 -43 -19 -479 0 -436 1 -459 19 -479 25 -27
79 -28 106 -1 19 19 20 33 20 342 0 275 2 320 14 308 7 -8 105 -148 216 -310
112 -162 214 -307 228 -322 35 -38 89 -39 123 -2 l24 26 -3 441 c-3 405 -5
444 -21 467 -21 30 -76 38 -106 16 -19 -14 -20 -29 -25 -344 l-5 -329 -220
319 c-121 176 -230 331 -242 344 -29 31 -82 33 -109 3z"/>
<path d="M3774 1165 c-176 -38 -323 -174 -375 -348 -29 -94 -24 -246 11 -327
85 -198 265 -320 471 -320 249 0 432 194 442 468 2 59 0 66 -26 88 -27 23 -34
24 -178 24 -146 0 -151 -1 -174 -25 -32 -31 -33 -74 -2 -103 21 -20 34 -22
126 -22 l103 0 -7 -37 c-12 -68 -67 -155 -119 -190 -63 -43 -116 -56 -198 -50
-90 6 -162 42 -227 112 -70 78 -94 145 -89 255 5 106 31 164 104 237 113 110
274 130 425 52 36 -19 63 -27 75 -23 37 14 54 36 54 74 0 23 -7 43 -17 52 -34
30 -126 70 -192 84 -80 17 -127 17 -207 -1z"/>
<path d="M1884 1158 c-42 -20 -44 -39 -44 -504 l0 -445 25 -24 c31 -32 74 -33
103 -2 22 23 22 25 22 481 l0 457 -25 24 c-26 27 -47 30 -81 13z"/>
<path d="M2403 998 c-42 -20 -44 -42 -41 -512 l3 -448 24 -19 c30 -25 62 -24
95 2 l26 20 2 325 3 324 225 -326 c124 -179 234 -332 245 -340 45 -32 109 -7
122 49 4 18 6 227 3 465 l-5 434 -24 19 c-30 25 -62 24 -95 -2 l-26 -20 -2
-326 -3 -327 -220 320 c-121 175 -232 331 -247 347 -28 29 -49 32 -85 15z"/>
<path d="M4660 320 c-45 -45 -13 -123 50 -123 43 0 70 28 70 74 0 28 -6 42
-22 53 -31 22 -74 20 -98 -4z"/>
</g>
</svg>
