<?xml version="1.0" standalone="no"?>
<!DOCTYPE svg PUBLIC "-//W3C//DTD SVG 20010904//EN"
 "http://www.w3.org/TR/2001/REC-SVG-20010904/DTD/svg10.dtd">
<svg version="1.0" xmlns="http://www.w3.org/2000/svg"
 width="512.000000pt" height="512.000000pt" viewBox="0 0 512.000000 512.000000"
 preserveAspectRatio="xMidYMid meet">

<g transform="translate(0.000000,512.000000) scale(0.100000,-0.100000)"
fill="#000000" stroke="none">
<path d="M3065 4795 c-116 -25 -250 -92 -340 -169 -39 -33 -39 -34 -12 -29 24
5 37 -4 97 -64 l70 -69 46 58 c48 61 133 137 197 177 26 16 37 30 37 47 0 13
9 33 20 44 l20 20 -37 -1 c-21 0 -65 -6 -98 -14z"/>
<path d="M3268 4795 c15 -11 33 -14 57 -9 50 9 33 24 -28 24 -49 0 -51 -1 -29
-15z"/>
<path d="M2612 4503 c-84 -113 -152 -293 -152 -401 0 -43 1 -44 18 -29 14 13
38 17 99 17 45 0 89 -3 98 -6 37 -15 38 -82 1 -106 -6 -4 -50 -8 -98 -8 -79 0
-88 2 -102 22 -16 22 -16 22 -16 -15 0 -71 32 -182 82 -286 43 -90 62 -116
136 -191 51 -51 116 -104 157 -128 136 -80 316 -121 463 -107 l77 8 -40 14
c-32 11 -47 12 -76 2 -49 -15 -76 -5 -91 37 -8 24 -26 43 -56 60 -52 31 -170
140 -203 189 -25 37 -39 44 -39 21 0 -24 -106 -116 -134 -116 -32 0 -66 32
-66 62 0 33 110 138 144 138 23 0 27 3 20 18 -4 9 -21 55 -38 102 -29 81 -31
92 -31 240 0 159 4 179 60 321 4 12 -1 18 -22 22 -38 8 -133 106 -142 147 l-6
31 -43 -58z"/>
<path d="M2303 2602 c-92 -28 -166 -69 -219 -123 -56 -57 -58 -52 56 -113 72
-38 113 -76 129 -119 8 -19 11 -311 11 -905 0 -542 4 -893 10 -920 28 -119
103 -213 217 -269 74 -37 79 -38 210 -41 128 -4 135 -3 189 23 36 18 64 40 81
66 15 22 32 38 39 35 72 -28 282 -38 355 -17 87 24 158 108 159 186 0 17 7 40
15 51 13 19 27 22 142 26 157 6 211 25 278 100 79 88 76 50 73 889 l-3 744
-24 59 c-65 162 -194 223 -451 213 -152 -6 -218 -21 -330 -75 -68 -33 -83 -36
-160 -37 -98 0 -132 14 -233 96 -65 53 -119 84 -208 120 -77 30 -250 36 -336
11z m295 -538 c17 -12 22 -25 22 -59 0 -34 -5 -47 -22 -59 -30 -21 -54 -20
-78 4 -40 40 -14 130 38 130 10 0 28 -7 40 -16z m12 -213 c6 -13 10 -166 10
-430 0 -359 -2 -412 -16 -425 -20 -21 -63 -20 -86 1 -17 15 -18 42 -18 426 0
368 2 412 17 429 22 25 79 24 93 -1z"/>
</g>
</svg>
